/* XPM */
static char *_colors[] = {
/* columns rows colors chars-per-pixel */
"160 117 3 1 ",
"  c black",
". c #ED1C24",
"X c white",
/* pixels */
"                                                                                                                                                                ",
"                                                                                                                                                                ",
"                                                                                                                                                                ",
"                                                                                                                                                                ",
"                                                                                                                                                                ",
"                                                                                                                                                                ",
"                                                                                                                                                                ",
"                                                                                                                                                                ",
"                                                                                                                                                                ",
"                                                                                                                                                                ",
"                  .........................................................................                                                                     ",
"                  .........................................................................                                                                     ",
"                  .........................................................................                                                                     ",
"                  .........................................................................                                                                     ",
"                  .........................................................................                                                                     ",
"                  .....                                                               .....                                                                     ",
"                  .....                                                               .....                                                                     ",
"                  .....                                                               .....                                                                     ",
"                  .....                                                               .....                                                                     ",
"                  .....                                                               .....                                                                     ",
"                  .....                                                               .....                                                                     ",
"                  .....                                                               .....                                                                     ",
"                  .....                                                               .....                                                                     ",
"                  .....                                                               .....                                                                     ",
"                  .....                                                               .....                                                                     ",
"                  .....                                                               .....                                                                     ",
"                  .....                                                               .....                                                                     ",
"                  .....                                                               .....                                                                     ",
"                  .....                                                               .....                                                                     ",
"                  .....                                                               .....                                                                     ",
"                  .....                                                               .....                                                                     ",
"                  .....                                                               .....                                                                     ",
"                  .....                                                               .....                                                                     ",
"                  .....                                                               .....                                                                     ",
"                  .....                                                               .....                                                                     ",
"                  .....                                                               .....                                                                     ",
"                  .....                               XXXXXXXXXXXXXXXXXXXXXXXXXXXXXXXX.....XXXXXXXXXXXXXXXXXXXXXXXXXXXXXXXXXXXXXXXXXXXX                         ",
"                  .....                               XXXXXXXXXXXXXXXXXXXXXXXXXXXXXXXX.....XXXXXXXXXXXXXXXXXXXXXXXXXXXXXXXXXXXXXXXXXXXX                         ",
"                  .....                               XXXXXXXXXXXXXXXXXXXXXXXXXXXXXXXX.....XXXXXXXXXXXXXXXXXXXXXXXXXXXXXXXXXXXXXXXXXXXX                         ",
"                  .....                               XXXXXXXXXXXXXXXXXXXXXXXXXXXXXXXX.....XXXXXXXXXXXXXXXXXXXXXXXXXXXXXXXXXXXXXXXXXXXX                         ",
"                  .....                               XXXXXXXXXXXXXXXXXXXXXXXXXXXXXXXX.....XXXXXXXXXXXXXXXXXXXXXXXXXXXXXXXXXXXXXXXXXXXX                         ",
"                  .....                               XXXXX                           .....                                       XXXXX                         ",
"                  .....                               XXXXX                           .....                                       XXXXX                         ",
"                  .....                               XXXXX                           .....                                       XXXXX                         ",
"                  .....                               XXXXX                           .....                                       XXXXX                         ",
"                  .....                               XXXXX                           .....                                       XXXXX                         ",
"                  .....                               XXXXX                           .....                                       XXXXX                         ",
"                  .....                               XXXXX                           .....                                       XXXXX                         ",
"                  .....                               XXXXX                           .....                                       XXXXX                         ",
"                  .....                               XXXXX                           .....                                       XXXXX                         ",
"                  .....                               XXXXX                           .....                                       XXXXX                         ",
"                  .....                               XXXXX                           .....                                       XXXXX                         ",
"                  .....                               XXXXX                           .....                                       XXXXX                         ",
"                  .....                               XXXXX                           .....                                       XXXXX                         ",
"                  .....                               XXXXX                           .....                                       XXXXX                         ",
"                  .....                               XXXXX                           .....                                       XXXXX                         ",
"                  .....                               XXXXX                           .....                                       XXXXX                         ",
"                  .....                               XXXXX                           .....                                       XXXXX                         ",
"                  .....                               XXXXX                           .....                                       XXXXX                         ",
"                  .....                               XXXXX                           .....                                       XXXXX                         ",
"                  .....                               XXXXX                           .....                                       XXXXX                         ",
"                  .....                               XXXXX                           .....                                       XXXXX                         ",
"                  .....                               XXXXX                           .....                                       XXXXX                         ",
"                  .....                               XXXXX                           .....                                       XXXXX                         ",
"                  .....                               XXXXX                           .....                                       XXXXX                         ",
"                  .....                               XXXXX                           .....                                       XXXXX                         ",
"                  .........................................................................                                       XXXXX                         ",
"                  .........................................................................                                       XXXXX                         ",
"                  .........................................................................                                       XXXXX                         ",
"                  .........................................................................                                       XXXXX                         ",
"                  .........................................................................                                       XXXXX                         ",
"                                                      XXXXX                                                                       XXXXX                         ",
"                                                      XXXXX                                                                       XXXXX                         ",
"                                                      XXXXX                                                                       XXXXX                         ",
"                                                      XXXXX                                                                       XXXXX                         ",
"                                                      XXXXX                                                                       XXXXX                         ",
"                                                      XXXXX                                                                       XXXXX                         ",
"                                                      XXXXX                                                                       XXXXX                         ",
"                                                      XXXXX                                                                       XXXXX                         ",
"                                                      XXXXX                                                                       XXXXX                         ",
"                                                      XXXXX                                                                       XXXXX                         ",
"                                                      XXXXX                                                                       XXXXX                         ",
"                                                      XXXXX                                                                       XXXXX                         ",
"                                                      XXXXX                                                                       XXXXX                         ",
"                                                      XXXXX                                                                       XXXXX                         ",
"                                                      XXXXXXXXXXXXXXXXXXXXXXXXXXXXXXXXXXXXXXXXXXXXXXXXXXXXXXXXXXXXXXXXXXXXXXXXXXXXXXXXX                         ",
"                                                      XXXXXXXXXXXXXXXXXXXXXXXXXXXXXXXXXXXXXXXXXXXXXXXXXXXXXXXXXXXXXXXXXXXXXXXXXXXXXXXXX                         ",
"                                                      XXXXXXXXXXXXXXXXXXXXXXXXXXXXXXXXXXXXXXXXXXXXXXXXXXXXXXXXXXXXXXXXXXXXXXXXXXXXXXXXX                         ",
"                                                      XXXXXXXXXXXXXXXXXXXXXXXXXXXXXXXXXXXXXXXXXXXXXXXXXXXXXXXXXXXXXXXXXXXXXXXXXXXXXXXXX                         ",
"                                                      XXXXXXXXXXXXXXXXXXXXXXXXXXXXXXXXXXXXXXXXXXXXXXXXXXXXXXXXXXXXXXXXXXXXXXXXXXXXXXXXX                         ",
"                                                                                                                                                                ",
"                                                                                                                                                                ",
"                                                                                                                                                                ",
"                                                                                                                                                                ",
"                                                                                                                                                                ",
"                                                                                                                                                                ",
"                                                                                                                                                                ",
"                                                                                                                                                                ",
"                                                                                                                                                                ",
"                                                                                                                                                                ",
"                                                                                                                                                                ",
"                                                                                                                                                                ",
"                                                                                                                                                                ",
"                                                                                                                                                                ",
"                                                                                                                                                                ",
"                                                                                                                                                                ",
"                                                                                                                                                                ",
"                                                                                                                                                                ",
"                                                                                                                                                                ",
"                                                                                                                                                                ",
"                                                                                                                                                                ",
"                                                                                                                                                                ",
"                                                                                                                                                                ",
"                                                                                                                                                                ",
"                                                                                                                                                                ",
"                                                                                                                                                                ",
"                                                                                                                                                                "
};
