/* XPM */
static char *orangered[] = {
/* columns rows colors chars-per-pixel */
"8 9 72 1 ",
"  c OrangeRed",
". c OrangeRed",
"X c OrangeRed",
"o c OrangeRed",
"O c OrangeRed",
"+ c OrangeRed",
"@ c OrangeRed",
"# c OrangeRed",
"$ c OrangeRed",
"% c OrangeRed",
"& c OrangeRed",
"* c OrangeRed",
"= c OrangeRed",
"- c OrangeRed",
"; c OrangeRed",
": c OrangeRed",
"> c OrangeRed",
", c OrangeRed",
"< c OrangeRed",
"1 c OrangeRed",
"2 c OrangeRed",
"3 c OrangeRed",
"4 c OrangeRed",
"5 c OrangeRed",
"6 c OrangeRed",
"7 c OrangeRed",
"8 c OrangeRed",
"9 c OrangeRed",
"0 c OrangeRed",
"q c OrangeRed",
"w c OrangeRed",
"e c OrangeRed",
"r c OrangeRed",
"t c OrangeRed",
"y c OrangeRed",
"u c OrangeRed",
"i c OrangeRed",
"p c OrangeRed",
"a c OrangeRed",
"s c OrangeRed",
"d c OrangeRed",
"f c OrangeRed",
"g c OrangeRed",
"h c OrangeRed",
"j c OrangeRed",
"k c OrangeRed",
"l c OrangeRed",
"z c OrangeRed",
"x c OrangeRed",
"c c OrangeRed",
"v c OrangeRed",
"b c OrangeRed",
"n c OrangeRed",
"m c OrangeRed",
"M c OrangeRed",
"N c OrangeRed",
"B c OrangeRed",
"V c OrangeRed",
"C c OrangeRed",
"Z c OrangeRed",
"A c OrangeRed",
"S c OrangeRed",
"D c OrangeRed",
"F c OrangeRed",
"G c OrangeRed",
"H c OrangeRed",
"J c OrangeRed",
"K c OrangeRed",
"L c OrangeRed",
"P c OrangeRed",
"I c OrangeRed",
"U c OrangeRed",
/* pixels */
" .XoO+@#",
"$%&*=-;:",
">,<12345",
"67890qwe",
"rtyuipas",
"dfghjklz",
"xcvbnmMN",
"BVCZASDF",
"GHJKLPIU"
};
